<?xml version="1.0" encoding="utf-8"?>
<!-- Generator: Adobe Illustrator 24.1.2, SVG Export Plug-In . SVG Version: 6.00 Build 0)  -->
<svg version="1.1" id="Layer_1" xmlns:xodm="http://www.corel.com/coreldraw/odm/2003"
	 xmlns="http://www.w3.org/2000/svg" xmlns:xlink="http://www.w3.org/1999/xlink" x="0px" y="0px" viewBox="0 0 488 228"
	 style="enable-background:new 0 0 488 228;" xml:space="preserve">
<style type="text/css">
	.st0{fill:none;}
	.st1{fill-rule:evenodd;clip-rule:evenodd;fill:#171796;}
	.st2{fill:#171796;}
</style>
<g id="Layer_x0020_1">
	<path class="st0" d="M34.9,8.3L101.7,9c0,0,62.3,0,65.6,53.4S88,136,76.2,134.8 M95.3,43c0,0,37.3,3.3,33.5,40.1
		c-3.8,36.8-25,44.2-52.7,51.5 M95.3,43l-30.7,0.5L50,147.1C190.5,153.2,191.2,9.9,191.2,9.9 M222.3,45.1l-22.2,125.1l40.1,1.2
		l22.7-125.1l32.8,0.5L301,9.9h-110 M194.5,45.1h27.9 M34.9,8.3L9.4,170.5c0,0,169.5,29.5,185.3-125.1 M281.4,171.4h41.3
		 M322.7,171.4l28.8-94.7l21.5,92.3h15.8l53.8-90.7l-2.8,92.3h41.3l4-160.3l-42-0.5l-49.3,85.5l-17-85.5h-41.1l-54.3,161.5"/>
	<path class="st1" d="M101.7,9L34.9,8.3L9.4,170.5c0,0,169.5,29.5,185.3-125.1h27.6l-22.2,125.1l40.1,1.2l22.7-125.1l32.8,0.5
		l5.2-36.8h-110c0,0-0.5,143.3-141.2,137.2L64.4,43.7l30.7-0.5c0,0,37.3,3.3,33.5,40.1c-3.8,36.8-24.8,43.9-52.4,51.2
		c11.8,1.2,94.7-19.4,91.1-72.5C164,9,101.7,9,101.7,9L101.7,9z"/>
	<polygon class="st1" points="335.7,8.3 281.4,169.8 322.7,169.8 351.5,75.1 373,167.6 389,167.6 442.9,77 440,169.3 481.3,169.3 
		485.4,9 443.3,8.3 394,94 377,8.3 	"/>
	<path class="st1" d="M240.5,171.4l22.7-125.1l32.8,0.5l5.2-36.8h-110c0,0-0.5,143.3-141.2,137.2L64.6,43.4L95.3,43
		c0,0,37.3,3.3,33.5,40.1c-3.8,36.8-25,44.2-52.7,51.5c11.8,1.2,94.7-19.4,91.1-72.5C164,9,101.7,9,101.7,9L34.9,8.3L9.4,170.5
		c0,0,169.5,29.5,185.3-125.1h27.6l-22.2,125.1L240.5,171.4L240.5,171.4z"/>
	<path class="st1" d="M351.5,77l-28.8,94.7h-41.3l54.3-161.5H377l17,85.5l49.3-85.5l42,0.5l-4,160.3H440l2.8-92.3L389,169.3h-15.8
		L351.5,77L351.5,77L351.5,77z M263.2,46.3l-22.7,125.1l-40.1-1.2l22.2-125.1h-27.9C178.9,199.8,9.4,170.2,9.4,170.2l25.5-162
		L101.7,9c0,0,62.3,0,65.6,53.4c3.3,53.4-79.3,73.7-91.1,72.5c27.9-7.3,48.6-14.6,52.7-51.5c4-36.8-33.5-40.1-33.5-40.1l-30.7,0.5
		L50,147.1C190.5,153.2,191.2,9.9,191.2,9.9h110L296,46.8L263.2,46.3L263.2,46.3z"/>
	<path class="st1" d="M240.5,171.4l22.7-125.1l32.8,0.5l5.2-36.8h-110c0,0-0.5,143.3-141.2,137.2L64.6,43.4L95.3,43
		c0,0,37.3,3.3,33.5,40.1c-3.8,36.8-25,44.2-52.7,51.5c11.8,1.2,94.7-19.4,91.1-72.5C164,9,101.7,9,101.7,9L34.9,8.3L9.4,170.5
		c0,0,169.5,29.5,185.3-125.1h27.6l-22.2,125.1L240.5,171.4L240.5,171.4z"/>
	<polygon class="st1" points="335.7,8.3 281.4,169.8 322.7,169.8 351.5,75.1 373,167.6 389,167.6 442.9,77 440,169.3 481.3,169.3 
		485.4,9 443.3,8.3 394,94 377,8.3 	"/>
	<path class="st2" d="M2.5,223.3v-31.1h10.7c2.4,0,4.3,0.1,5.5,0.4c1.8,0.4,3.3,1.2,4.6,2.2c1.6,1.4,2.9,3.2,3.7,5.3
		c0.8,2.2,1.2,4.6,1.2,7.4c0,2.4-0.3,4.5-0.8,6.3c-0.6,1.8-1.3,3.3-2.1,4.5c-0.9,1.2-1.8,2.1-2.8,2.8c-1,0.7-2.3,1.2-3.7,1.6
		c-1.5,0.4-3.1,0.5-5,0.5L2.5,223.3L2.5,223.3z M6.6,219.6h6.6c2,0,3.7-0.2,4.8-0.6c1.2-0.4,2.1-0.9,2.8-1.6c1-1,1.7-2.3,2.3-3.9
		c0.5-1.7,0.8-3.6,0.8-6c0-3.3-0.5-5.8-1.6-7.5c-1.1-1.8-2.4-2.9-3.9-3.5c-1.1-0.4-2.9-0.6-5.3-0.6H6.6L6.6,219.6L6.6,219.6z
		 M30.4,223.3l11.9-31.1h4.5l12.7,31.1h-4.7l-3.6-9.4H38.2l-3.4,9.4H30.4z M39.4,210.5H50l-3.2-8.6c-1-2.6-1.7-4.8-2.2-6.5
		c-0.4,2-1,4-1.7,6L39.4,210.5z M68.5,223.3l-12-31.1h4.5l8.1,22.6c0.6,1.8,1.2,3.5,1.6,5.1c0.5-1.7,1-3.4,1.7-5.1l8.4-22.6h4.2
		l-12.1,31.1H68.5L68.5,223.3z M88.4,223.3v-31.1h4.1v27.5h15.3v3.6H88.4L88.4,223.3z M109.3,223.3l11.9-31.1h4.5l12.7,31.1h-4.7
		l-3.6-9.4h-13.1l-3.4,9.4H109.3L109.3,223.3z M118.3,210.5h10.6l-3.2-8.6c-1-2.6-1.7-4.8-2.2-6.5c-0.4,2-1,4-1.7,6L118.3,210.5
		L118.3,210.5z M146.4,223.3v-27.5h-10.3v-3.6h24.6v3.6h-10.3v27.5H146.4L146.4,223.3z M183.4,223.3v-27.5h-10.3v-3.6h24.6v3.6
		h-10.3v27.5H183.4z M202.2,223.3v-31.1h22.5v3.6h-18.3v9.6h17.2v3.6h-17.2v10.6h19.1v3.6L202.2,223.3L202.2,223.3z M229.7,213.3
		l3.9-0.3c0.2,1.6,0.6,2.8,1.3,3.9c0.7,1,1.7,1.8,3.1,2.4c1.4,0.6,3,0.9,4.8,0.9c1.6,0,3-0.2,4.2-0.7c1.2-0.5,2.1-1.1,2.7-1.9
		c0.6-0.8,0.9-1.7,0.9-2.7c0-1-0.3-1.8-0.8-2.5c-0.6-0.7-1.5-1.3-2.8-1.8c-0.8-0.3-2.7-0.8-5.5-1.5c-2.9-0.7-4.9-1.3-6-1.9
		c-1.5-0.8-2.6-1.8-3.3-2.9c-0.7-1.2-1.1-2.4-1.1-3.9c0-1.6,0.4-3,1.3-4.4c0.9-1.4,2.2-2.4,3.9-3.1c1.7-0.7,3.6-1.1,5.7-1.1
		c2.3,0,4.3,0.4,6.1,1.1c1.8,0.7,3.1,1.8,4.1,3.3c0.9,1.4,1.5,3.1,1.5,4.9l-4,0.3c-0.2-2-0.9-3.4-2.2-4.4c-1.2-1-3-1.5-5.4-1.5
		c-2.5,0-4.3,0.5-5.4,1.4c-1.1,0.9-1.7,2-1.7,3.3c0,1.1,0.4,2,1.2,2.8c0.8,0.7,2.9,1.5,6.2,2.2c3.3,0.8,5.6,1.4,6.9,2
		c1.8,0.8,3.1,1.9,4,3.2c0.9,1.3,1.3,2.7,1.3,4.4c0,1.7-0.5,3.2-1.4,4.7c-0.9,1.5-2.3,2.6-4.1,3.4c-1.8,0.8-3.8,1.2-6,1.2
		c-2.8,0-5.2-0.4-7.1-1.2c-1.9-0.8-3.4-2-4.5-3.7C230.3,217.2,229.8,215.4,229.7,213.3L229.7,213.3z M267.9,223.3v-27.5h-10.3v-3.6
		h24.6v3.6h-10.3v27.5H267.9z M297.8,223.3v-31.1h6.2l7.4,22c0.7,2,1.2,3.6,1.5,4.6c0.4-1.1,0.9-2.8,1.7-5l7.5-21.6h5.5v31.1h-4v-26
		l-9.1,26h-3.7l-9-26.5v26.5L297.8,223.3L297.8,223.3z M330.6,223.3l11.9-31.1h4.5l12.7,31.1H355l-3.6-9.4h-13.1l-3.4,9.4H330.6
		L330.6,223.3z M339.6,210.5h10.6l-3.2-8.6c-1-2.6-1.7-4.8-2.2-6.5c-0.4,2-1,4-1.7,6L339.6,210.5z M363.1,223.3v-31.1h13.8
		c2.8,0,4.9,0.3,6.3,0.8c1.4,0.6,2.6,1.5,3.5,3c0.9,1.4,1.3,3,1.3,4.7c0,2.2-0.7,4.1-2.1,5.6c-1.4,1.5-3.6,2.5-6.6,2.9
		c1.1,0.5,1.9,1,2.5,1.5c1.2,1.1,2.3,2.5,3.4,4.1l5.4,8.5h-5.1l-4.1-6.5c-1.2-1.9-2.2-3.3-3-4.3c-0.8-1-1.5-1.7-2.1-2.1
		c-0.6-0.4-1.2-0.7-1.9-0.8c-0.5-0.1-1.2-0.1-2.3-0.1h-4.8v13.8L363.1,223.3L363.1,223.3z M367.2,205.9h8.8c1.9,0,3.3-0.2,4.4-0.6
		c1.1-0.4,1.9-1,2.4-1.9c0.6-0.9,0.8-1.8,0.8-2.8c0-1.5-0.5-2.7-1.6-3.6c-1.1-0.9-2.7-1.4-5-1.4h-9.8V205.9z M394.2,223.3v-31.1h4.1
		v15.4l15.4-15.4h5.6l-13,12.6l13.6,18.5h-5.4l-11.1-15.7l-5.1,4.9v10.8H394.2z M419.9,223.3l11.9-31.1h4.5l12.7,31.1h-4.7l-3.6-9.4
		h-13.1l-3.4,9.4H419.9L419.9,223.3z M428.9,210.5h10.6l-3.2-8.6c-1-2.6-1.7-4.8-2.2-6.5c-0.4,2-1,4-1.7,6L428.9,210.5z
		 M449.8,223.3v-3.8l15.9-19.9c1.1-1.4,2.2-2.6,3.2-3.7h-17.3v-3.6h22.2v3.6l-17.5,21.6l-1.9,2.2h19.9v3.6H449.8z M479.5,223.3
		v-31.1h4.1v31.1H479.5z"/>
</g>
</svg>
